Coordinates
version=1
nRows=6
nColumns=36
inDegrees=yes

Units are S.I. units (second, meters, Newtons, ...)
If the header above contains a line with 'inDegrees', this indicates whether rotational values are in degrees (yes) or radians (no).

endheader
time	pelvis_tilt	pelvis_list	pelvis_rotation	pelvis_tx	pelvis_ty	pelvis_tz	hip_flexion_r	hip_adduction_r	hip_rotation_r	knee_angle_r	knee_angle_r_beta	ankle_angle_r	subtalar_angle_r	mtp_angle_r	hip_flexion_l	hip_adduction_l	hip_rotation_l	knee_angle_l	knee_angle_l_beta	ankle_angle_l	subtalar_angle_l	mtp_angle_l	lumbar_extension	lumbar_bending	lumbar_rotation	arm_flex_r	arm_add_r	arm_rot_r	elbow_flex_r	pro_sup_r	arm_flex_l	arm_add_l	arm_rot_l	elbow_flex_l	pro_sup_l
      1.88000000	     -3.01150983	      2.74507071	     87.11678259	     -0.26908511	      0.96502160	     -1.16083492	     22.12836366	     -8.41607165	     -8.76136831	     53.33181198	      0.93081572	      0.16279829	    -30.53916230	     -7.49999987	     -5.95672049	      6.95560158	    -16.30153159	      8.89175685	      0.15519043	      8.67864713	      8.38189688	     -7.49999987	    -15.51007435	     -3.05403645	     -1.63436559	      3.30512435	     -6.70670357	    -41.21906664	     32.00135467	    107.60886602	     10.40374396	     -6.87345323	    -31.63465310	     32.38329250	     84.36812544
      1.89000000	     -3.07295112	      2.74221562	     87.58391014	     -0.26995978	      0.96426656	     -1.17185855	     22.85280670	     -8.53202444	     -9.66511248	     50.87429274	      0.88792391	      0.81992963	    -29.89491739	     -7.49999987	     -6.84894467	      7.01552521	    -16.41224265	      8.61772253	      0.15040763	      8.81660473	      9.33847595	     -7.49999987	    -15.70966351	     -3.01378693	     -2.07815833	      3.06465884	     -6.63802913	    -41.80936521	     31.90755058	    107.52001819	     11.43079783	     -7.19683451	    -30.63948017	     32.71508634	     84.77501186
      1.90000000	     -3.01814758	      2.89771109	     88.12497890	     -0.27081702	      0.96349822	     -1.18305054	     23.26598968	     -8.47281467	    -10.42356592	     48.20479812	      0.84133244	      1.39151811	    -28.83621890	     -7.49999987	     -7.96555890	      6.91294418	    -16.69084217	      8.29504831	      0.14477590	      9.17965488	     10.77269026	     -7.49999987	    -16.05720141	     -2.83919181	     -2.59833786	      2.65651973	     -6.63760508	    -41.71422469	     32.09068554	    105.75250672	     12.28303132	     -7.60310414	    -29.18939762	     33.30913809	     83.20028961
      1.91000000	     -3.04630983	      3.03337080	     88.75460201	     -0.27196707	      0.96267022	     -1.19423910	     23.61242758	     -8.58936868	    -11.46320758	     45.28518869	      0.79037564	      1.99493873	    -27.62522580	     -7.49999987	     -9.03715563	      6.90084421	    -16.67113138	      7.99190381	      0.13948504	      9.31763835	     11.56916147	     -7.49999987	    -16.43023757	     -2.70780366	     -3.17992033	      2.35630255	     -6.65980730	    -41.80471380	     32.08191887	    104.05633899	     13.16268525	     -7.87850515	    -28.04662496	     33.94215973	     82.01595959
      1.92000000	     -3.14124335	      3.02698378	     89.36163570	     -0.27265473	      0.96129475	     -1.20536301	     24.12042858	     -8.68109247	    -12.24537530	     42.40964122	      0.74018787	      2.24676319	    -25.99037259	     -7.49999987	     -9.85231462	      6.86009855	    -16.87898191	      7.94142883	      0.13860408	      9.96486279	     12.97102052	     -7.49999987	    -16.64026315	     -2.72301960	     -3.74239593	      2.40121600	     -6.31856706	    -43.67121337	     31.81535005	    107.52323425	     13.99671066	     -8.34666923	    -26.88478809	     34.57126461	     83.86586499
      1.93000000	     -3.26258095	      3.14131312	     89.92634028	     -0.27341040	      0.95994748	     -1.21668868	     24.34258107	     -8.84939432	    -13.36364669	     39.21291357	      0.68439445	      2.97928390	    -23.89187450	     -7.49999987	    -10.82887333	      6.87773592	    -16.89688115	      7.84060574	      0.13684439	     10.25225672	     13.80634478	     -7.49999987	    -16.90304543	     -2.70225318	     -4.36411638	      2.22567807	     -6.21064494	    -44.25226033	     31.74392097	    107.68927390	     14.79593463	     -8.75857442	    -25.97244783	     35.13876493	     85.36338507
